<mxfile host="65bd71144e">
    <diagram id="51ouflv0m8EwS0c2B2zZ" name="Page-1">
        <mxGraphModel dx="652" dy="377" grid="1" gridSize="1" guides="1" tooltips="1" connect="1" arrows="1" fold="1" page="1" pageScale="1" pageWidth="850" pageHeight="1100" math="0" shadow="0">
            <root>
                <mxCell id="0"/>
                <mxCell id="1" parent="0"/>
                <mxCell id="42" value="" style="endArrow=none;html=1;" parent="1" edge="1">
                    <mxGeometry width="50" height="50" relative="1" as="geometry">
                        <mxPoint x="95" y="126" as="sourcePoint"/>
                        <mxPoint x="434" y="126" as="targetPoint"/>
                    </mxGeometry>
                </mxCell>
                <mxCell id="43" value="" style="endArrow=none;html=1;" parent="1" edge="1">
                    <mxGeometry width="50" height="50" relative="1" as="geometry">
                        <mxPoint x="95" y="148" as="sourcePoint"/>
                        <mxPoint x="433" y="148" as="targetPoint"/>
                    </mxGeometry>
                </mxCell>
                <mxCell id="45" value="VCC" style="text;html=1;align=center;verticalAlign=middle;whiteSpace=wrap;rounded=0;" parent="1" vertex="1">
                    <mxGeometry x="45" y="47" width="60" height="30" as="geometry"/>
                </mxCell>
                <mxCell id="55" value="" style="group" parent="1" vertex="1" connectable="0">
                    <mxGeometry x="31" y="120.9959090909091" width="60" height="31.488636363636374" as="geometry"/>
                </mxCell>
                <mxCell id="6" value="SCL" style="text;html=1;align=right;verticalAlign=middle;whiteSpace=wrap;rounded=0;container=0;" parent="55" vertex="1">
                    <mxGeometry width="60" height="10.488636363636363" as="geometry"/>
                </mxCell>
                <mxCell id="40" value="SDA" style="text;html=1;align=right;verticalAlign=middle;whiteSpace=wrap;rounded=0;container=0;" parent="55" vertex="1">
                    <mxGeometry y="21" width="60" height="10.488636363636363" as="geometry"/>
                </mxCell>
                <mxCell id="75" value="" style="group" parent="1" vertex="1" connectable="0">
                    <mxGeometry x="377" y="126" width="55" height="147.5" as="geometry"/>
                </mxCell>
                <mxCell id="60" value="" style="group" parent="75" vertex="1" connectable="0">
                    <mxGeometry y="53.74022727272728" width="55" height="93.75977272727272" as="geometry"/>
                </mxCell>
                <mxCell id="61" value="SLAVE&lt;div&gt;#AdressN&lt;/div&gt;" style="rounded=0;whiteSpace=wrap;html=1;align=left;container=0;rotation=-90;" parent="60" vertex="1">
                    <mxGeometry x="-19" y="19.75977272727272" width="93" height="55" as="geometry"/>
                </mxCell>
                <mxCell id="62" value="" style="group;rotation=-90;" parent="60" vertex="1" connectable="0">
                    <mxGeometry x="-2.5" y="14.255681818181813" width="60" height="31.488636363636374" as="geometry"/>
                </mxCell>
                <mxCell id="63" value="SCL" style="text;html=1;align=right;verticalAlign=middle;whiteSpace=wrap;rounded=0;container=0;rotation=-90;" parent="62" vertex="1">
                    <mxGeometry x="-11" y="11" width="60" height="10.488636363636363" as="geometry"/>
                </mxCell>
                <mxCell id="64" value="SDA" style="text;html=1;align=right;verticalAlign=middle;whiteSpace=wrap;rounded=0;container=0;rotation=-90;" parent="62" vertex="1">
                    <mxGeometry x="10" y="11" width="60" height="10.488636363636363" as="geometry"/>
                </mxCell>
                <mxCell id="73" value="" style="endArrow=none;html=1;" parent="75" edge="1">
                    <mxGeometry width="50" height="50" relative="1" as="geometry">
                        <mxPoint x="16" y="54.74000000000001" as="sourcePoint"/>
                        <mxPoint x="16" as="targetPoint"/>
                    </mxGeometry>
                </mxCell>
                <mxCell id="74" value="" style="endArrow=none;html=1;" parent="75" edge="1">
                    <mxGeometry width="50" height="50" relative="1" as="geometry">
                        <mxPoint x="37" y="54.74000000000001" as="sourcePoint"/>
                        <mxPoint x="37" y="22" as="targetPoint"/>
                    </mxGeometry>
                </mxCell>
                <mxCell id="76" value="" style="group" parent="1" vertex="1" connectable="0">
                    <mxGeometry x="203" y="126" width="55" height="147.5" as="geometry"/>
                </mxCell>
                <mxCell id="77" value="" style="group" parent="76" vertex="1" connectable="0">
                    <mxGeometry y="53.74022727272728" width="55" height="93.75977272727272" as="geometry"/>
                </mxCell>
                <mxCell id="78" value="SLAVE&lt;div&gt;#Adress0&lt;/div&gt;" style="rounded=0;whiteSpace=wrap;html=1;align=left;container=0;rotation=-90;" parent="77" vertex="1">
                    <mxGeometry x="-19" y="19.75977272727272" width="93" height="55" as="geometry"/>
                </mxCell>
                <mxCell id="79" value="" style="group;rotation=-90;" parent="77" vertex="1" connectable="0">
                    <mxGeometry x="-2.5" y="14.255681818181813" width="60" height="31.488636363636374" as="geometry"/>
                </mxCell>
                <mxCell id="80" value="SCL" style="text;html=1;align=right;verticalAlign=middle;whiteSpace=wrap;rounded=0;container=0;rotation=-90;" parent="79" vertex="1">
                    <mxGeometry x="-11" y="11" width="60" height="10.488636363636363" as="geometry"/>
                </mxCell>
                <mxCell id="81" value="SDA" style="text;html=1;align=right;verticalAlign=middle;whiteSpace=wrap;rounded=0;container=0;rotation=-90;" parent="79" vertex="1">
                    <mxGeometry x="10" y="11" width="60" height="10.488636363636363" as="geometry"/>
                </mxCell>
                <mxCell id="82" value="" style="endArrow=none;html=1;" parent="76" edge="1">
                    <mxGeometry width="50" height="50" relative="1" as="geometry">
                        <mxPoint x="16" y="54.74000000000001" as="sourcePoint"/>
                        <mxPoint x="16" as="targetPoint"/>
                    </mxGeometry>
                </mxCell>
                <mxCell id="83" value="" style="endArrow=none;html=1;" parent="76" edge="1">
                    <mxGeometry width="50" height="50" relative="1" as="geometry">
                        <mxPoint x="37" y="54.74000000000001" as="sourcePoint"/>
                        <mxPoint x="37" y="22" as="targetPoint"/>
                    </mxGeometry>
                </mxCell>
                <mxCell id="84" value="" style="group" parent="1" vertex="1" connectable="0">
                    <mxGeometry x="274" y="126" width="55" height="147.5" as="geometry"/>
                </mxCell>
                <mxCell id="85" value="" style="group" parent="84" vertex="1" connectable="0">
                    <mxGeometry y="53.74022727272728" width="55" height="93.75977272727272" as="geometry"/>
                </mxCell>
                <mxCell id="86" value="SLAVE&lt;div&gt;#Adress1&lt;/div&gt;" style="rounded=0;whiteSpace=wrap;html=1;align=left;container=0;rotation=-90;" parent="85" vertex="1">
                    <mxGeometry x="-19" y="19.75977272727272" width="93" height="55" as="geometry"/>
                </mxCell>
                <mxCell id="87" value="" style="group;rotation=-90;" parent="85" vertex="1" connectable="0">
                    <mxGeometry x="-2.5" y="14.255681818181813" width="60" height="31.488636363636374" as="geometry"/>
                </mxCell>
                <mxCell id="88" value="SCL" style="text;html=1;align=right;verticalAlign=middle;whiteSpace=wrap;rounded=0;container=0;rotation=-90;" parent="87" vertex="1">
                    <mxGeometry x="-11" y="11" width="60" height="10.488636363636363" as="geometry"/>
                </mxCell>
                <mxCell id="89" value="SDA" style="text;html=1;align=right;verticalAlign=middle;whiteSpace=wrap;rounded=0;container=0;rotation=-90;" parent="87" vertex="1">
                    <mxGeometry x="10" y="11" width="60" height="10.488636363636363" as="geometry"/>
                </mxCell>
                <mxCell id="90" value="" style="endArrow=none;html=1;" parent="84" edge="1">
                    <mxGeometry width="50" height="50" relative="1" as="geometry">
                        <mxPoint x="16" y="54.74000000000001" as="sourcePoint"/>
                        <mxPoint x="16" as="targetPoint"/>
                    </mxGeometry>
                </mxCell>
                <mxCell id="91" value="" style="endArrow=none;html=1;" parent="84" edge="1">
                    <mxGeometry width="50" height="50" relative="1" as="geometry">
                        <mxPoint x="37" y="54.74000000000001" as="sourcePoint"/>
                        <mxPoint x="37" y="22" as="targetPoint"/>
                    </mxGeometry>
                </mxCell>
                <mxCell id="92" value="..." style="text;html=1;align=center;verticalAlign=middle;whiteSpace=wrap;rounded=0;" parent="1" vertex="1">
                    <mxGeometry x="335" y="214" width="34" height="27" as="geometry"/>
                </mxCell>
                <mxCell id="93" value="" style="group" parent="1" vertex="1" connectable="0">
                    <mxGeometry x="91" y="126" width="55" height="147.5" as="geometry"/>
                </mxCell>
                <mxCell id="94" value="" style="group" parent="93" vertex="1" connectable="0">
                    <mxGeometry y="53.74022727272728" width="55" height="93.75977272727272" as="geometry"/>
                </mxCell>
                <mxCell id="95" value="MASTER" style="rounded=0;whiteSpace=wrap;html=1;align=left;container=0;rotation=-90;" parent="94" vertex="1">
                    <mxGeometry x="-19" y="19.75977272727272" width="93" height="55" as="geometry"/>
                </mxCell>
                <mxCell id="96" value="" style="group;rotation=-90;" parent="94" vertex="1" connectable="0">
                    <mxGeometry x="-2.5" y="14.255681818181813" width="60" height="31.488636363636374" as="geometry"/>
                </mxCell>
                <mxCell id="97" value="SCL" style="text;html=1;align=right;verticalAlign=middle;whiteSpace=wrap;rounded=0;container=0;rotation=-90;" parent="96" vertex="1">
                    <mxGeometry x="-11" y="11" width="60" height="10.488636363636363" as="geometry"/>
                </mxCell>
                <mxCell id="98" value="SDA" style="text;html=1;align=right;verticalAlign=middle;whiteSpace=wrap;rounded=0;container=0;rotation=-90;" parent="96" vertex="1">
                    <mxGeometry x="10" y="11" width="60" height="10.488636363636363" as="geometry"/>
                </mxCell>
                <mxCell id="99" value="" style="endArrow=none;html=1;" parent="93" edge="1">
                    <mxGeometry width="50" height="50" relative="1" as="geometry">
                        <mxPoint x="16" y="54.74000000000001" as="sourcePoint"/>
                        <mxPoint x="16" as="targetPoint"/>
                    </mxGeometry>
                </mxCell>
                <mxCell id="100" value="" style="endArrow=none;html=1;" parent="93" edge="1">
                    <mxGeometry width="50" height="50" relative="1" as="geometry">
                        <mxPoint x="37" y="54.74000000000001" as="sourcePoint"/>
                        <mxPoint x="37" y="22" as="targetPoint"/>
                    </mxGeometry>
                </mxCell>
                <mxCell id="52" value="" style="pointerEvents=1;verticalLabelPosition=bottom;shadow=0;dashed=0;align=center;html=1;verticalAlign=top;shape=mxgraph.electrical.resistors.resistor_2;rotation=-90;" parent="1" vertex="1">
                    <mxGeometry x="147" y="81" width="46" height="8" as="geometry"/>
                </mxCell>
                <mxCell id="53" value="" style="endArrow=none;html=1;" parent="1" edge="1">
                    <mxGeometry width="50" height="50" relative="1" as="geometry">
                        <mxPoint x="170" y="126" as="sourcePoint"/>
                        <mxPoint x="170" y="108" as="targetPoint"/>
                    </mxGeometry>
                </mxCell>
                <mxCell id="47" value="" style="pointerEvents=1;verticalLabelPosition=bottom;shadow=0;dashed=0;align=center;html=1;verticalAlign=top;shape=mxgraph.electrical.resistors.resistor_2;rotation=-90;" parent="1" vertex="1">
                    <mxGeometry x="168" y="81" width="46" height="8" as="geometry"/>
                </mxCell>
                <mxCell id="48" value="" style="endArrow=none;html=1;" parent="1" edge="1">
                    <mxGeometry width="50" height="50" relative="1" as="geometry">
                        <mxPoint x="191" y="148" as="sourcePoint"/>
                        <mxPoint x="191" y="108" as="targetPoint"/>
                    </mxGeometry>
                </mxCell>
                <mxCell id="110" value="" style="endArrow=none;html=1;" parent="1" edge="1">
                    <mxGeometry width="50" height="50" relative="1" as="geometry">
                        <mxPoint x="95" y="62" as="sourcePoint"/>
                        <mxPoint x="434" y="62" as="targetPoint"/>
                    </mxGeometry>
                </mxCell>
                <mxCell id="112" value="SCL" style="text;html=1;align=right;verticalAlign=middle;whiteSpace=wrap;rounded=0;container=0;" parent="1" vertex="1">
                    <mxGeometry x="61" y="319" width="59" height="10.49" as="geometry"/>
                </mxCell>
                <mxCell id="113" value="SDA" style="text;html=1;align=right;verticalAlign=middle;whiteSpace=wrap;rounded=0;container=0;" parent="1" vertex="1">
                    <mxGeometry x="61" y="364" width="59" height="10.49" as="geometry"/>
                </mxCell>
                <mxCell id="114" value="" style="endArrow=none;html=1;" parent="1" edge="1">
                    <mxGeometry width="50" height="50" relative="1" as="geometry">
                        <mxPoint x="120" y="323" as="sourcePoint"/>
                        <mxPoint x="200" y="323" as="targetPoint"/>
                    </mxGeometry>
                </mxCell>
                <mxCell id="115" value="" style="endArrow=none;html=1;" parent="1" edge="1">
                    <mxGeometry width="50" height="50" relative="1" as="geometry">
                        <mxPoint x="120" y="370" as="sourcePoint"/>
                        <mxPoint x="160" y="370" as="targetPoint"/>
                    </mxGeometry>
                </mxCell>
                <mxCell id="116" value="" style="endArrow=none;html=1;" parent="1" edge="1">
                    <mxGeometry width="50" height="50" relative="1" as="geometry">
                        <mxPoint x="180" y="399.49" as="sourcePoint"/>
                        <mxPoint x="220" y="399.49" as="targetPoint"/>
                    </mxGeometry>
                </mxCell>
                <mxCell id="117" value="" style="endArrow=none;html=1;" parent="1" edge="1">
                    <mxGeometry width="50" height="50" relative="1" as="geometry">
                        <mxPoint x="200" y="322.49" as="sourcePoint"/>
                        <mxPoint x="220" y="353" as="targetPoint"/>
                    </mxGeometry>
                </mxCell>
                <mxCell id="118" value="" style="endArrow=none;html=1;" parent="1" edge="1">
                    <mxGeometry width="50" height="50" relative="1" as="geometry">
                        <mxPoint x="160" y="370.49" as="sourcePoint"/>
                        <mxPoint x="180" y="400" as="targetPoint"/>
                    </mxGeometry>
                </mxCell>
                <mxCell id="119" value="" style="endArrow=none;html=1;" parent="1" edge="1">
                    <mxGeometry width="50" height="50" relative="1" as="geometry">
                        <mxPoint x="220" y="353" as="sourcePoint"/>
                        <mxPoint x="297" y="353" as="targetPoint"/>
                    </mxGeometry>
                </mxCell>
                <mxCell id="120" value="" style="endArrow=none;html=1;" parent="1" edge="1">
                    <mxGeometry width="50" height="50" relative="1" as="geometry">
                        <mxPoint x="220" y="399.49" as="sourcePoint"/>
                        <mxPoint x="297" y="400" as="targetPoint"/>
                    </mxGeometry>
                </mxCell>
                <mxCell id="126" value="" style="endArrow=none;html=1;" parent="1" edge="1">
                    <mxGeometry width="50" height="50" relative="1" as="geometry">
                        <mxPoint x="339" y="352.49" as="sourcePoint"/>
                        <mxPoint x="379" y="352.49" as="targetPoint"/>
                    </mxGeometry>
                </mxCell>
                <mxCell id="127" value="" style="endArrow=none;html=1;" parent="1" edge="1">
                    <mxGeometry width="50" height="50" relative="1" as="geometry">
                        <mxPoint x="302" y="400" as="sourcePoint"/>
                        <mxPoint x="435" y="400" as="targetPoint"/>
                    </mxGeometry>
                </mxCell>
                <mxCell id="128" value="" style="endArrow=none;html=1;" parent="1" edge="1">
                    <mxGeometry width="50" height="50" relative="1" as="geometry">
                        <mxPoint x="379" y="353" as="sourcePoint"/>
                        <mxPoint x="399" y="323" as="targetPoint"/>
                    </mxGeometry>
                </mxCell>
                <mxCell id="129" value="" style="endArrow=none;html=1;" parent="1" edge="1">
                    <mxGeometry width="50" height="50" relative="1" as="geometry">
                        <mxPoint x="434" y="400" as="sourcePoint"/>
                        <mxPoint x="454" y="370" as="targetPoint"/>
                    </mxGeometry>
                </mxCell>
                <mxCell id="130" value="" style="endArrow=none;html=1;" parent="1" edge="1">
                    <mxGeometry width="50" height="50" relative="1" as="geometry">
                        <mxPoint x="398" y="323" as="sourcePoint"/>
                        <mxPoint x="485" y="323" as="targetPoint"/>
                    </mxGeometry>
                </mxCell>
                <mxCell id="131" value="" style="endArrow=none;html=1;" parent="1" edge="1">
                    <mxGeometry width="50" height="50" relative="1" as="geometry">
                        <mxPoint x="453" y="370" as="sourcePoint"/>
                        <mxPoint x="485" y="370" as="targetPoint"/>
                    </mxGeometry>
                </mxCell>
                <mxCell id="133" value="Điều kiện bắt đầu" style="text;html=1;align=center;verticalAlign=middle;whiteSpace=wrap;rounded=0;" parent="1" vertex="1">
                    <mxGeometry x="123" y="410" width="100" height="30" as="geometry"/>
                </mxCell>
                <mxCell id="135" value="" style="endArrow=none;html=1;" edge="1" parent="1">
                    <mxGeometry width="50" height="50" relative="1" as="geometry">
                        <mxPoint x="260" y="353" as="sourcePoint"/>
                        <mxPoint x="280" y="323" as="targetPoint"/>
                    </mxGeometry>
                </mxCell>
                <mxCell id="137" value="" style="endArrow=none;html=1;" edge="1" parent="1">
                    <mxGeometry width="50" height="50" relative="1" as="geometry">
                        <mxPoint x="320" y="322.49" as="sourcePoint"/>
                        <mxPoint x="340" y="353" as="targetPoint"/>
                    </mxGeometry>
                </mxCell>
                <mxCell id="138" value="" style="endArrow=none;html=1;" edge="1" parent="1">
                    <mxGeometry width="50" height="50" relative="1" as="geometry">
                        <mxPoint x="280" y="323" as="sourcePoint"/>
                        <mxPoint x="297" y="323" as="targetPoint"/>
                    </mxGeometry>
                </mxCell>
                <mxCell id="139" value="" style="endArrow=none;html=1;" edge="1" parent="1">
                    <mxGeometry width="50" height="50" relative="1" as="geometry">
                        <mxPoint x="302" y="323" as="sourcePoint"/>
                        <mxPoint x="320" y="323" as="targetPoint"/>
                    </mxGeometry>
                </mxCell>
                <mxCell id="142" value="" style="endArrow=none;html=1;" edge="1" parent="1">
                    <mxGeometry width="50" height="50" relative="1" as="geometry">
                        <mxPoint x="302" y="352.49" as="sourcePoint"/>
                        <mxPoint x="342" y="352.49" as="targetPoint"/>
                    </mxGeometry>
                </mxCell>
                <mxCell id="143" value="" style="endArrow=none;html=1;" edge="1" parent="1">
                    <mxGeometry width="50" height="50" relative="1" as="geometry">
                        <mxPoint x="300" y="359" as="sourcePoint"/>
                        <mxPoint x="304" y="347" as="targetPoint"/>
                    </mxGeometry>
                </mxCell>
                <mxCell id="144" value="" style="endArrow=none;html=1;" edge="1" parent="1">
                    <mxGeometry width="50" height="50" relative="1" as="geometry">
                        <mxPoint x="295" y="359" as="sourcePoint"/>
                        <mxPoint x="299" y="347" as="targetPoint"/>
                    </mxGeometry>
                </mxCell>
                <mxCell id="145" value="" style="endArrow=none;html=1;" edge="1" parent="1">
                    <mxGeometry width="50" height="50" relative="1" as="geometry">
                        <mxPoint x="300" y="329" as="sourcePoint"/>
                        <mxPoint x="304" y="317" as="targetPoint"/>
                    </mxGeometry>
                </mxCell>
                <mxCell id="146" value="" style="endArrow=none;html=1;" edge="1" parent="1">
                    <mxGeometry width="50" height="50" relative="1" as="geometry">
                        <mxPoint x="295" y="329" as="sourcePoint"/>
                        <mxPoint x="299" y="317" as="targetPoint"/>
                    </mxGeometry>
                </mxCell>
                <mxCell id="149" value="" style="endArrow=none;html=1;" edge="1" parent="1">
                    <mxGeometry width="50" height="50" relative="1" as="geometry">
                        <mxPoint x="260" y="400" as="sourcePoint"/>
                        <mxPoint x="280" y="370" as="targetPoint"/>
                    </mxGeometry>
                </mxCell>
                <mxCell id="150" value="" style="endArrow=none;html=1;" edge="1" parent="1">
                    <mxGeometry width="50" height="50" relative="1" as="geometry">
                        <mxPoint x="320" y="369.49" as="sourcePoint"/>
                        <mxPoint x="340" y="400" as="targetPoint"/>
                    </mxGeometry>
                </mxCell>
                <mxCell id="151" value="" style="endArrow=none;html=1;" edge="1" parent="1">
                    <mxGeometry width="50" height="50" relative="1" as="geometry">
                        <mxPoint x="280" y="370" as="sourcePoint"/>
                        <mxPoint x="297" y="370" as="targetPoint"/>
                    </mxGeometry>
                </mxCell>
                <mxCell id="152" value="" style="endArrow=none;html=1;" edge="1" parent="1">
                    <mxGeometry width="50" height="50" relative="1" as="geometry">
                        <mxPoint x="302" y="370" as="sourcePoint"/>
                        <mxPoint x="320" y="370" as="targetPoint"/>
                    </mxGeometry>
                </mxCell>
                <mxCell id="154" value="" style="endArrow=none;html=1;" edge="1" parent="1">
                    <mxGeometry width="50" height="50" relative="1" as="geometry">
                        <mxPoint x="300" y="406" as="sourcePoint"/>
                        <mxPoint x="304" y="394" as="targetPoint"/>
                    </mxGeometry>
                </mxCell>
                <mxCell id="155" value="" style="endArrow=none;html=1;" edge="1" parent="1">
                    <mxGeometry width="50" height="50" relative="1" as="geometry">
                        <mxPoint x="295" y="406" as="sourcePoint"/>
                        <mxPoint x="299" y="394" as="targetPoint"/>
                    </mxGeometry>
                </mxCell>
                <mxCell id="156" value="" style="endArrow=none;html=1;" edge="1" parent="1">
                    <mxGeometry width="50" height="50" relative="1" as="geometry">
                        <mxPoint x="300" y="376" as="sourcePoint"/>
                        <mxPoint x="304" y="364" as="targetPoint"/>
                    </mxGeometry>
                </mxCell>
                <mxCell id="157" value="" style="endArrow=none;html=1;" edge="1" parent="1">
                    <mxGeometry width="50" height="50" relative="1" as="geometry">
                        <mxPoint x="295" y="376" as="sourcePoint"/>
                        <mxPoint x="299" y="364" as="targetPoint"/>
                    </mxGeometry>
                </mxCell>
                <mxCell id="158" value="" style="rounded=0;whiteSpace=wrap;html=1;fillColor=none;dashed=1;" vertex="1" parent="1">
                    <mxGeometry x="426" y="302" width="35" height="109" as="geometry"/>
                </mxCell>
                <mxCell id="159" value="" style="rounded=0;whiteSpace=wrap;html=1;fillColor=none;dashed=1;" vertex="1" parent="1">
                    <mxGeometry x="155" y="301" width="37" height="109" as="geometry"/>
                </mxCell>
                <mxCell id="162" value="&lt;span style=&quot;color: rgb(0, 0, 0);&quot;&gt;Điều kiện kết thúc&lt;/span&gt;" style="text;html=1;align=center;verticalAlign=middle;whiteSpace=wrap;rounded=0;" vertex="1" parent="1">
                    <mxGeometry x="396" y="410" width="100" height="30" as="geometry"/>
                </mxCell>
                <mxCell id="163" value="START" style="rounded=0;whiteSpace=wrap;html=1;fillColor=#E6E6E6;" vertex="1" parent="1">
                    <mxGeometry x="79" y="591" width="53" height="34" as="geometry"/>
                </mxCell>
                <mxCell id="164" value="7-BIT SLAVE ADDR&lt;br&gt;+ 1 BIT [R]" style="rounded=0;whiteSpace=wrap;html=1;fillColor=#E6E6E6;" vertex="1" parent="1">
                    <mxGeometry x="132" y="591" width="112" height="34" as="geometry"/>
                </mxCell>
                <mxCell id="165" value="ACK" style="rounded=0;whiteSpace=wrap;html=1;" vertex="1" parent="1">
                    <mxGeometry x="244" y="591" width="35" height="34" as="geometry"/>
                </mxCell>
                <mxCell id="166" value="8 BIT COMMAND" style="rounded=0;whiteSpace=wrap;html=1;fillColor=#E6E6E6;" vertex="1" parent="1">
                    <mxGeometry x="279" y="591" width="112" height="34" as="geometry"/>
                </mxCell>
                <mxCell id="167" value="&lt;span style=&quot;color: rgb(0, 0, 0);&quot;&gt;ACK&lt;/span&gt;" style="rounded=0;whiteSpace=wrap;html=1;" vertex="1" parent="1">
                    <mxGeometry x="391" y="591" width="35" height="34" as="geometry"/>
                </mxCell>
                <mxCell id="168" value="8 BIT DATA" style="rounded=0;whiteSpace=wrap;html=1;" vertex="1" parent="1">
                    <mxGeometry x="426" y="591" width="112" height="34" as="geometry"/>
                </mxCell>
                <mxCell id="169" value="&lt;span style=&quot;color: rgb(0, 0, 0);&quot;&gt;ACK&lt;/span&gt;" style="rounded=0;whiteSpace=wrap;html=1;fillColor=#E6E6E6;" vertex="1" parent="1">
                    <mxGeometry x="538" y="591" width="35" height="34" as="geometry"/>
                </mxCell>
                <mxCell id="170" value="STOP" style="rounded=0;whiteSpace=wrap;html=1;fillColor=#E6E6E6;" vertex="1" parent="1">
                    <mxGeometry x="573" y="591" width="53" height="34" as="geometry"/>
                </mxCell>
                <mxCell id="171" value="START" style="rounded=0;whiteSpace=wrap;html=1;fillColor=#E6E6E6;" vertex="1" parent="1">
                    <mxGeometry x="79" y="531" width="53" height="34" as="geometry"/>
                </mxCell>
                <mxCell id="172" value="7-BIT SLAVE ADDR&lt;br&gt;+ 1 BIT [#W]" style="rounded=0;whiteSpace=wrap;html=1;fillColor=#E6E6E6;" vertex="1" parent="1">
                    <mxGeometry x="132" y="531" width="112" height="34" as="geometry"/>
                </mxCell>
                <mxCell id="173" value="ACK" style="rounded=0;whiteSpace=wrap;html=1;" vertex="1" parent="1">
                    <mxGeometry x="244" y="531" width="35" height="34" as="geometry"/>
                </mxCell>
                <mxCell id="174" value="8 BIT COMMAND" style="rounded=0;whiteSpace=wrap;html=1;fillColor=#E6E6E6;" vertex="1" parent="1">
                    <mxGeometry x="279" y="531" width="112" height="34" as="geometry"/>
                </mxCell>
                <mxCell id="175" value="&lt;span style=&quot;color: rgb(0, 0, 0);&quot;&gt;ACK&lt;/span&gt;" style="rounded=0;whiteSpace=wrap;html=1;" vertex="1" parent="1">
                    <mxGeometry x="391" y="531" width="35" height="34" as="geometry"/>
                </mxCell>
                <mxCell id="176" value="8 BIT DATA" style="rounded=0;whiteSpace=wrap;html=1;fillColor=#E6E6E6;" vertex="1" parent="1">
                    <mxGeometry x="426" y="531" width="112" height="34" as="geometry"/>
                </mxCell>
                <mxCell id="177" value="&lt;span style=&quot;color: rgb(0, 0, 0);&quot;&gt;ACK&lt;/span&gt;" style="rounded=0;whiteSpace=wrap;html=1;fillColor=#FFFFFF;" vertex="1" parent="1">
                    <mxGeometry x="538" y="531" width="35" height="34" as="geometry"/>
                </mxCell>
                <mxCell id="178" value="STOP" style="rounded=0;whiteSpace=wrap;html=1;fillColor=#E6E6E6;" vertex="1" parent="1">
                    <mxGeometry x="573" y="531" width="53" height="34" as="geometry"/>
                </mxCell>
                <mxCell id="179" value="a.&amp;nbsp;" style="text;html=1;align=center;verticalAlign=middle;whiteSpace=wrap;rounded=0;" vertex="1" parent="1">
                    <mxGeometry x="322" y="561" width="60" height="30" as="geometry"/>
                </mxCell>
                <mxCell id="180" value="b.&amp;nbsp;" style="text;html=1;align=center;verticalAlign=middle;whiteSpace=wrap;rounded=0;" vertex="1" parent="1">
                    <mxGeometry x="322" y="620" width="60" height="30" as="geometry"/>
                </mxCell>
                <mxCell id="181" value="" style="rounded=0;whiteSpace=wrap;html=1;fillColor=#E6E6E6;" vertex="1" parent="1">
                    <mxGeometry x="80" y="645" width="27" height="12" as="geometry"/>
                </mxCell>
                <mxCell id="182" value="" style="rounded=0;whiteSpace=wrap;html=1;" vertex="1" parent="1">
                    <mxGeometry x="205" y="645" width="27" height="12" as="geometry"/>
                </mxCell>
                <mxCell id="183" value="Master" style="text;html=1;align=center;verticalAlign=middle;whiteSpace=wrap;rounded=0;" vertex="1" parent="1">
                    <mxGeometry x="106" y="636" width="60" height="30" as="geometry"/>
                </mxCell>
                <mxCell id="184" value="Slave" style="text;html=1;align=center;verticalAlign=middle;whiteSpace=wrap;rounded=0;" vertex="1" parent="1">
                    <mxGeometry x="232" y="636" width="60" height="30" as="geometry"/>
                </mxCell>
            </root>
        </mxGraphModel>
    </diagram>
</mxfile>